<svg width="129" height="100" viewBox="0 0 129 100" fill="none" xmlns="http://www.w3.org/2000/svg">
<g id="Logo center square">
<g id="Group">
<path id="Shape" fill-rule="evenodd" clip-rule="evenodd" d="M23.6853 0C25.6275 5.57505 29.0886 8.65823 33.2495 11.5877L72.1881 39.0018C76.4665 42.0145 77.0687 44.6383 73.3273 47.8174L68.5371 51.8879C71.9121 47.5262 69.3389 45.733 65.552 43.0939L65.5517 43.0937C65.3131 42.9275 65.0698 42.7579 64.8228 42.5841L33.2495 20.3544C23.6237 13.575 23.6342 11.3894 23.6788 2.11104C23.682 1.44531 23.6853 0.743073 23.6853 0ZM96.009 35.3056C92.6998 31.0741 76.8644 32.4828 70.6582 33.3978L64.349 28.9566C66.7746 29.5164 70.8021 29.4907 75.2408 29.4623C83.8634 29.4072 94.0373 29.3421 97.0325 33.5407C103.962 33.9403 105.629 39.1628 105.02 44.3201C100.91 39.132 88.9584 43.0904 83.9873 47.311C83.5863 47.6636 83.1796 48.0219 82.7674 48.3849C73.9244 56.1733 62.6377 66.114 53.8933 68.1718L74.9891 50.2604C79.8083 46.1664 81.2369 43.962 79.1537 42.8662C79.6541 42.7299 80.2529 42.5594 80.9295 42.3667C87.0282 40.6304 99.4446 37.0955 103.013 40.5642C103.051 38.0398 99.9078 35.1121 96.009 35.3056ZM33.2495 38.1826C29.5985 35.6112 25.4087 32.3617 23.6853 26.9421C23.6853 36.4937 24.7125 40.9367 33.2495 46.9476L48.5316 57.7089C48.7821 57.8851 49.0259 58.055 49.2621 58.2195C52.9563 60.7932 54.7951 62.0743 51.4213 66.4322L56.2116 62.3617C59.953 59.1826 59.3508 56.5588 55.0723 53.5461L33.2495 38.1826Z" fill="#0067B5"/>
<path id="Shape_2" fill-rule="evenodd" clip-rule="evenodd" d="M33.103 24.7919C29.1118 21.9818 25.1984 19.2265 23.6853 13.6492C23.6853 13.8573 23.6852 14.0623 23.6852 14.2642C23.6816 24.4897 23.6807 26.7709 33.2495 33.6709L56.2585 49.8607L56.2589 49.861C60.4685 52.8247 63.4248 54.9061 59.9728 59.1645L64.7631 55.0958C68.5045 51.9168 67.9023 49.2929 63.622 46.2803L33.2495 24.8951C33.2007 24.8607 33.1518 24.8263 33.103 24.7919ZM94.4973 35.839C92.7034 34.7342 89.8625 34.3906 87.2188 34.3399C88.5027 34.7174 89.757 35.4627 90.5874 35.9561C90.6283 35.9804 90.6682 36.0041 90.707 36.0271C91.9005 36.6781 93.481 36.4105 94.4973 35.839Z" fill="#ED1A21"/>
</g>
<path id="Shape_3" fill-rule="evenodd" clip-rule="evenodd" d="M34.5787 99.9583C35.7794 99.9583 36.3418 99.4032 36.3418 98.1952V97.3851H34.7975V97.9041C34.7975 98.4592 34.6058 98.6491 34.0524 98.6491H31.3436C30.7993 98.6491 30.5986 98.4592 30.5986 97.9041V95.6491C30.5986 95.0958 30.7993 94.9041 31.3436 94.9041H34.0524C34.6058 94.9041 34.7975 95.0958 34.7975 95.6491V96.1048H36.3418V95.3598C36.3418 94.15 35.7794 93.5967 34.5787 93.5967H30.7631C29.5624 93.5967 29 94.15 29 95.3598V98.1952C29 99.4032 29.5624 99.9583 30.7631 99.9583H34.5787ZM52.5949 99.9583L49.1971 93.5967H47.4069L44.0072 99.9583H45.7523L46.3436 98.7667H50.1772L50.7685 99.9583H52.5949ZM48.2604 94.886L49.5787 97.5587H46.9421L48.2604 94.886ZM66.2495 97.631C67.3038 97.6039 67.7577 97.141 67.7577 96.0506V95.1771C67.7577 94.0506 67.2948 93.5967 66.1772 93.5967H60.6329V99.9583H62.2333V97.7395H64.5407L66.2043 99.9583H68.0307L66.2495 97.631ZM65.5316 94.7594C66.0127 94.7594 66.1591 94.9131 66.1591 95.396V95.9764C66.1591 96.4592 66.0127 96.613 65.5316 96.613H62.2333V94.7594H65.5316ZM76.2152 98.1952C76.2152 99.4032 76.7776 99.9583 77.9765 99.9583H82.0398C83.2387 99.9583 83.8029 99.4032 83.8029 98.1952V96.414H80.085V97.5949H82.2495V97.9583C82.2495 98.5045 82.0579 98.7034 81.5027 98.7034H78.5678C78.0127 98.7034 77.8228 98.5045 77.8228 97.9583V95.6328C77.8228 95.0867 78.0127 94.886 78.5678 94.886H81.4485C82.0036 94.886 82.1935 95.0867 82.1935 95.6328V95.7866H83.8029V95.3598C83.8029 94.15 83.2387 93.5967 82.0398 93.5967H77.9765C76.7776 93.5967 76.2152 94.15 76.2152 95.3598V98.1952ZM98.047 99.9583C99.2477 99.9583 99.8101 99.4032 99.8101 98.1952V95.3598C99.8101 94.15 99.2477 93.5967 98.047 93.5967H93.9946C92.7957 93.5967 92.2315 94.15 92.2315 95.3598V98.1952C92.2315 99.4032 92.7957 99.9583 93.9946 99.9583H98.047ZM94.5769 98.631C94.0307 98.631 93.8318 98.4303 93.8318 97.886V95.669C93.8318 95.1229 94.0307 94.924 94.5769 94.924H97.4665C98.0199 94.924 98.2116 95.1229 98.2116 95.669V97.886C98.2116 98.4303 98.0199 98.631 97.4665 98.631H94.5769Z" fill="#ED1A21"/>
<path id="Shape_4" fill-rule="evenodd" clip-rule="evenodd" d="M68.5244 73.812H71.7902C76.1374 73.812 80.4448 77.369 80.4448 81.7144C80.4448 86.1556 76.0271 89.6167 71.7902 89.6167H68.5244H65.2568C61.0199 89.6167 56.6022 86.1556 56.6022 81.7144C56.6022 77.369 60.9096 73.812 65.2568 73.812H68.5244ZM95.387 85.5769H87.1194V89.6167H82.2532V81.5371H95.8608C99.047 81.5371 99.0796 77.9223 95.8608 77.9223H82.2532V73.812H95.4105C105.723 73.812 105.841 85.5769 95.387 85.5769ZM14.5389 79.5299L20.1013 89.6167H24.4286L29.0796 73.812H23.9819L21.4051 82.5715L16.5769 73.812H14.5389H12.5027L7.6745 82.5715L5.09765 73.812H0L4.65099 89.6167H8.9783L14.5389 79.5299ZM35.906 89.6167H31.0163V73.812H35.906V89.6167ZM54.8318 85.5534V89.6167H38.9548V73.812H43.8445V85.5534H54.8318ZM116.89 73.812H120.156C124.503 73.812 128.81 77.369 128.81 81.7144C128.81 86.1556 124.392 89.6167 120.156 89.6167H116.89H113.622C109.385 89.6167 104.967 86.1556 104.967 81.7144C104.967 77.369 109.275 73.812 113.622 73.812H116.89ZM116.89 77.8825H119.819C121.928 77.8825 124.016 79.6059 124.016 81.7144C124.016 83.8681 121.873 85.5462 119.819 85.5462H116.89H113.958C111.904 85.5462 109.761 83.8681 109.761 81.7144C109.761 79.6059 111.85 77.8825 113.958 77.8825H116.89ZM68.5244 77.8825H71.4539C73.5624 77.8825 75.651 79.6059 75.651 81.7144C75.651 83.8681 73.5081 85.5462 71.4539 85.5462H68.5244H65.5931C63.5389 85.5462 61.396 83.8681 61.396 81.7144C61.396 79.6059 63.4864 77.8825 65.5931 77.8825H68.5244Z" fill="#0067B5"/>
</g>
</svg>
